<?xml version="1.0" encoding="UTF-8"?>
<svg width="160px" height="160px" viewBox="0 0 160 160" version="1.1" xmlns="http://www.w3.org/2000/svg" xmlns:xlink="http://www.w3.org/1999/xlink">
    <!-- Generator: Sketch 52.4 (67378) - http://www.bohemiancoding.com/sketch -->
    <title>Oval</title>
    <desc>Created with Sketch.</desc>
    <g id="Page-1" stroke="none" stroke-width="1" fill="none" fill-rule="evenodd">
        <path d="M90.0602372,7.52230273 L137.217914,36.7522049 C141.6307,39.4873971 144.315353,44.3099764 144.315353,49.5016966 L144.315353,109.855979 C144.315353,115.047699 141.6307,119.870278 137.217914,122.605471 L90.0602372,151.835373 C85.2191333,154.836051 79.09622,154.836051 74.2551161,151.835373 L27.0974395,122.605471 C22.6846533,119.870278 20,115.047699 20,109.855979 L20,49.5016966 C20,44.3099764 22.6846533,39.4873971 27.0974395,36.7522049 L74.2551161,7.52230273 C79.09622,4.52162492 85.2191333,4.52162492 90.0602372,7.52230273 Z" id="Polygon" stroke="#4A4A4A" stroke-width="2" fill="#424242" stroke-linecap="round"></path>
        <g id="noun_news_1248039" transform="translate(45.000000, 53.000000)" fill="#FAFBFF" fill-rule="nonzero">
            <path d="M0,14.1666667 L0,40.8333333 L8.28947368,35.8333333 L22.9361447,40.9641667 L20.2976053,48.5058333 L38.2061842,54.8325 L40.8613026,47.245 L63,55 L63,0 L8.28947368,19.1666667 L0,14.1666667 Z M36.6858947,51.6458333 L23.4699868,46.9758333 L25.2845526,41.7866667 L38.5137237,46.4216667 L36.6858947,51.6458333 Z M60.5131579,51.4808333 L49.7368421,47.7058333 L49.7368421,7.29416667 L60.5131579,3.51916667 L60.5131579,51.4808333 Z" id="Shape"></path>
            <path d="M73.7802399,26 L68.2197601,26 C67.5464525,26 67,26.448 67,27 C67,27.552 67.5464525,28 68.2197601,28 L73.7802399,28 C74.4535475,28 75,27.552 75,27 C75,26.448 74.4535475,26 73.7802399,26 Z" id="Shape"></path>
            <path d="M72.3728642,39.7059991 L67.8604947,37.1617202 C67.2637081,36.8253746 66.504463,37.0307827 66.1637973,37.619183 C65.8231317,38.2084017 66.0311781,38.9580188 66.6271358,39.2943644 L71.1395053,41.8386434 C71.7362919,42.1741707 72.495537,41.9695808 72.8362027,41.3811805 C73.1768683,40.7919619 72.9688219,40.0423448 72.3728642,39.7059991 Z" id="Shape"></path>
            <path d="M67.860473,17.8379967 L72.3732508,15.2919779 C72.9700914,14.9558347 73.1764987,14.2066689 72.8358022,13.6186228 C72.4951058,13.0297588 71.7357919,12.82611 71.1389514,13.1614354 L66.6270025,15.7074541 C66.0301619,16.0444152 65.8237546,16.793581 66.1636221,17.3816271 C66.5051475,17.9704911 67.2644614,18.1741399 67.860473,17.8379967 Z" id="Shape"></path>
        </g>
    </g>
</svg>